# xmcd
#
# Track frame offsets:
# 150
# 24473
# 40842
# 62513
# 82109
# 97197
# 119964
# 159472
# 178146
# 198396
# 216743
# 237951
#
# Disc length: 3548 seconds
#
# Revision: 0
# Processed by: cddbd v1.4PL0 Copyright (c) Steve Scherf et al.
# Submitted via: Axialis_AX_CDPlayer 2.6
#
DISCID=b40dda0c
DTITLE=Flash Harry - Flash Harry
DYEAR=1900
DGENRE=
TTITLE0=Cajun Walk
TTITLE1=Oh Babe
TTITLE2=You Get Your Feet Wet
TTITLE3=You Broke My Heart
TTITLE4=Straten Island - Mason's Apron
TTITLE5=Tear Stained Letter
TTITLE6=So Tired
TTITLE7=Drinking Whiskey
TTITLE8=The Devil Went Down To Georgia
TTITLE9=Over The Hills
TTITLE10=My Last Cigarette
TTITLE11=Sally McLennan
EXTD=
EXTT0=
EXTT1=
EXTT2=
EXTT3=
EXTT4=
EXTT5=
EXTT6=
EXTT7=
EXTT8=
EXTT9=
EXTT10=
EXTT11=
PLAYORDER=
